<svg xmlns="http://www.w3.org/2000/svg" viewBox="0 0 1600 900" role="img" aria-label="Medicine shelf background">
  <defs>
    <linearGradient id="bg" x1="0" x2="1" y1="0" y2="1">
      <stop offset="0%" stop-color="#eff7fb"/>
      <stop offset="100%" stop-color="#d9eef8"/>
    </linearGradient>
    <linearGradient id="coat" x1="0" x2="1" y1="0" y2="1">
      <stop offset="0%" stop-color="#f9fcff"/>
      <stop offset="100%" stop-color="#dcecf7"/>
    </linearGradient>
  </defs>

  <rect width="1600" height="900" fill="url(#bg)"/>
  <rect x="780" y="120" width="730" height="660" rx="30" fill="#f8fcff" stroke="#dbeaf4" stroke-width="10"/>

  <rect x="825" y="200" width="640" height="8" fill="#c1d8e8"/>
  <rect x="825" y="320" width="640" height="8" fill="#c1d8e8"/>
  <rect x="825" y="440" width="640" height="8" fill="#c1d8e8"/>
  <rect x="825" y="560" width="640" height="8" fill="#c1d8e8"/>

  <rect x="860" y="220" width="88" height="88" rx="8" fill="#f7cdd1"/>
  <rect x="970" y="220" width="88" height="88" rx="8" fill="#f8ddb3"/>
  <rect x="1080" y="220" width="88" height="88" rx="8" fill="#f2e7a5"/>
  <rect x="1190" y="220" width="88" height="88" rx="8" fill="#b8ddf2"/>

  <rect x="860" y="340" width="88" height="88" rx="8" fill="#f6d2b8"/>
  <rect x="970" y="340" width="88" height="88" rx="8" fill="#b9e2d1"/>
  <rect x="1080" y="340" width="88" height="88" rx="8" fill="#c5d9f8"/>
  <rect x="1190" y="340" width="88" height="88" rx="8" fill="#efd3ee"/>

  <rect x="860" y="460" width="88" height="88" rx="8" fill="#f5e0ac"/>
  <rect x="970" y="460" width="88" height="88" rx="8" fill="#f4b9ba"/>
  <rect x="1080" y="460" width="88" height="88" rx="8" fill="#bdd8ef"/>
  <rect x="1190" y="460" width="88" height="88" rx="8" fill="#d2e8c1"/>

  <rect x="220" y="120" width="520" height="760" rx="100" fill="url(#coat)"/>
  <rect x="280" y="220" width="180" height="520" rx="80" fill="#fdfefe"/>
  <rect x="465" y="330" width="220" height="320" rx="60" fill="#eaf5fc"/>
  <rect x="520" y="430" width="300" height="170" rx="24" fill="#5e8aa8"/>
  <rect x="542" y="452" width="255" height="126" rx="16" fill="#dcebf6"/>

  <circle cx="700" cy="490" r="70" fill="#f3f9fd"/>
  <circle cx="700" cy="490" r="30" fill="#96bdd7"/>
</svg>
