<svg xmlns="http://www.w3.org/2000/svg" viewBox="0 0 1600 900" role="img" aria-label="Clinical abstract blue background">
  <defs>
    <linearGradient id="bg" x1="0" x2="1" y1="0" y2="1">
      <stop offset="0%" stop-color="#edf8fd"/>
      <stop offset="50%" stop-color="#d8eff9"/>
      <stop offset="100%" stop-color="#eaf7fd"/>
    </linearGradient>
    <radialGradient id="bubble" cx="50%" cy="50%" r="50%">
      <stop offset="0%" stop-color="#ffffff" stop-opacity="0.7"/>
      <stop offset="100%" stop-color="#cce6f4" stop-opacity="0"/>
    </radialGradient>
  </defs>

  <rect width="1600" height="900" fill="url(#bg)"/>
  <circle cx="240" cy="180" r="210" fill="url(#bubble)"/>
  <circle cx="520" cy="120" r="120" fill="url(#bubble)"/>
  <circle cx="1300" cy="250" r="230" fill="url(#bubble)"/>
  <circle cx="1120" cy="640" r="260" fill="url(#bubble)"/>

  <path d="M0 700 C320 560, 520 860, 920 700 C1210 590, 1380 800, 1600 710 L1600 900 L0 900 Z" fill="#c7e6f7" opacity="0.85"/>
  <path d="M0 760 C250 640, 620 940, 980 780 C1260 660, 1450 820, 1600 760 L1600 900 L0 900 Z" fill="#add7ee" opacity="0.65"/>

  <rect x="170" y="230" width="210" height="210" rx="38" fill="#ffffff" opacity="0.45"/>
  <rect x="1220" y="130" width="170" height="170" rx="28" fill="#ffffff" opacity="0.34"/>
  <rect x="1000" y="420" width="220" height="220" rx="42" fill="#ffffff" opacity="0.26"/>
</svg>
