<svg width="64" height="64" viewBox="0 0 64 64" fill="none" xmlns="http://www.w3.org/2000/svg">
  <defs>
    <linearGradient id="favShieldA" x1="32" y1="6" x2="32" y2="58" gradientUnits="userSpaceOnUse">
      <stop stop-color="#1F8DD6"/>
      <stop offset="1" stop-color="#0B47A6"/>
    </linearGradient>
    <linearGradient id="favShieldB" x1="32" y1="6" x2="54" y2="58" gradientUnits="userSpaceOnUse">
      <stop stop-color="#35B4E8"/>
      <stop offset="1" stop-color="#1570C6"/>
    </linearGradient>
  </defs>

  <rect width="64" height="64" rx="14" fill="#F5FAFF"/>
  <path d="M32 6C24 10 17 11 10 13C9 28 10 47 32 58C54 47 55 28 54 13C47 11 40 10 32 6Z" fill="url(#favShieldA)"/>
  <path d="M32 6V58C54 47 55 28 54 13C47 11 40 10 32 6Z" fill="url(#favShieldB)"/>

  <rect x="15" y="17" width="12" height="4" rx="1.2" fill="#F3F8FE"/>
  <rect x="19" y="13" width="4" height="12" rx="1.2" fill="#F3F8FE"/>

  <path d="M39 21H44C45.104 21 46 21.896 46 23C46 24.104 45.104 25 44 25H43.6V33L49.8 43.2C51.4 45.8 50 49.2 46.6 50.8C41.4 53.2 36.6 53.2 31.4 50.8C28 49.2 26.6 45.8 28.2 43.2L34.4 33V25H34C32.896 25 32 24.104 32 23C32 21.896 32.896 21 34 21H39Z" fill="#F8FCFF" stroke="#0B62BF" stroke-width="1.8"/>
  <path d="M32.5 44.5C37 47 41 47 45.5 44.5" stroke="#2BB6E5" stroke-width="2.3" stroke-linecap="round"/>
  <circle cx="36.6" cy="38.5" r="1.8" fill="#34B8E8"/>
  <circle cx="40.4" cy="41.5" r="1.2" fill="#63CFF1"/>
</svg>
